<svg width="21" height="21" viewBox="0 0 21 21" fill="none" xmlns="http://www.w3.org/2000/svg">
    <path d="M18.66 6.173a1.385 1.385 0 0 0-.722-.347 1.337 1.337 0 0 0-.784.12l-3.402 1.638-1.996-3.883a1.51 1.51 0 0 0-.53-.588 1.36 1.36 0 0 0-.732-.217c-.257 0-.51.075-.732.217a1.51 1.51 0 0 0-.529.588L7.237 7.584 3.835 5.947a1.337 1.337 0 0 0-.784-.127 1.383 1.383 0 0 0-.725.342c-.208.186-.363.43-.448.707a1.673 1.673 0 0 0-.033.856l1.831 8.452c.076.343.257.648.513.866.257.218.574.336.9.335a1.27 1.27 0 0 0 .382-.062 17.555 17.555 0 0 1 10.04 0 1.336 1.336 0 0 0 1.122-.155c.168-.107.314-.249.43-.418a1.62 1.62 0 0 0 .243-.566l1.838-8.452c.062-.282.05-.577-.036-.851a1.552 1.552 0 0 0-.447-.701zm-2.969 9.256a19.18 19.18 0 0 0-10.393 0L3.662 7.912l3.113 1.497c.33.16.702.18 1.044.055.342-.124.628-.383.801-.726l1.875-3.641 1.873 3.641c.174.343.46.602.802.726s.714.105 1.044-.055l3.113-1.497-1.636 7.517z" fill="#fff"/>
    <path d="M18.66 6.173a1.385 1.385 0 0 0-.722-.347 1.337 1.337 0 0 0-.784.12l-3.402 1.638-1.996-3.883a1.51 1.51 0 0 0-.53-.588 1.36 1.36 0 0 0-.732-.217c-.257 0-.51.075-.732.217a1.51 1.51 0 0 0-.529.588L7.237 7.584 3.835 5.947a1.337 1.337 0 0 0-.784-.127 1.383 1.383 0 0 0-.725.342c-.208.186-.363.43-.448.707a1.673 1.673 0 0 0-.033.856l1.831 8.452c.076.343.257.648.513.866.257.218.574.336.9.335a1.27 1.27 0 0 0 .382-.062 17.555 17.555 0 0 1 10.04 0 1.336 1.336 0 0 0 1.122-.155c.168-.107.314-.249.43-.418a1.62 1.62 0 0 0 .243-.566l1.838-8.452c.062-.282.05-.577-.036-.851a1.552 1.552 0 0 0-.447-.701zm-2.969 9.256a19.18 19.18 0 0 0-10.393 0L3.662 7.912l3.113 1.497c.33.16.702.18 1.044.055.342-.124.628-.383.801-.726l1.875-3.641 1.873 3.641c.174.343.46.602.802.726s.714.105 1.044-.055l3.113-1.497-1.636 7.517z" fill="url(#5ocbxl0qxa)"/>
    <path d="M18.66 6.173a1.385 1.385 0 0 0-.722-.347 1.337 1.337 0 0 0-.784.12l-3.402 1.638-1.996-3.883a1.51 1.51 0 0 0-.53-.588 1.36 1.36 0 0 0-.732-.217c-.257 0-.51.075-.732.217a1.51 1.51 0 0 0-.529.588L7.237 7.584 3.835 5.947a1.337 1.337 0 0 0-.784-.127 1.383 1.383 0 0 0-.725.342c-.208.186-.363.43-.448.707a1.673 1.673 0 0 0-.033.856l1.831 8.452c.076.343.257.648.513.866.257.218.574.336.9.335a1.27 1.27 0 0 0 .382-.062 17.555 17.555 0 0 1 10.04 0 1.336 1.336 0 0 0 1.122-.155c.168-.107.314-.249.43-.418a1.62 1.62 0 0 0 .243-.566l1.838-8.452c.062-.282.05-.577-.036-.851a1.552 1.552 0 0 0-.447-.701zm-2.969 9.256a19.18 19.18 0 0 0-10.393 0L3.662 7.912l3.113 1.497c.33.16.702.18 1.044.055.342-.124.628-.383.801-.726l1.875-3.641 1.873 3.641c.174.343.46.602.802.726s.714.105 1.044-.055l3.113-1.497-1.636 7.517z" fill="url(#jawjqstddb)"/>
    <path d="m4.52 9.061 1.267 5.48c1.81-.783 7.292-.783 9.413-.098l1.177-5.186-1.9.88c-.242.163-.978.313-1.63 0-.652-.313-1.086-.913-1.177-1.174L10.495 6.42 9.317 8.963c-.15.303-.76.94-1.267 1.174-.507.235-1.235 0-1.448-.098L4.52 9.062z" fill="#fff"/>
    <path d="m4.52 9.061 1.267 5.48c1.81-.783 7.292-.783 9.413-.098l1.177-5.186-1.9.88c-.242.163-.978.313-1.63 0-.652-.313-1.086-.913-1.177-1.174L10.495 6.42 9.317 8.963c-.15.303-.76.94-1.267 1.174-.507.235-1.235 0-1.448-.098L4.52 9.062z" fill="url(#ywlooim9qc)"/>
    <path d="m4.52 9.061 1.267 5.48c1.81-.783 7.292-.783 9.413-.098l1.177-5.186-1.9.88c-.242.163-.978.313-1.63 0-.652-.313-1.086-.913-1.177-1.174L10.495 6.42 9.317 8.963c-.15.303-.76.94-1.267 1.174-.507.235-1.235 0-1.448-.098L4.52 9.062z" fill="url(#3unwklc9zd)"/>
    <defs>
        <linearGradient id="5ocbxl0qxa" x1="1.805" y1="17.378" x2="21.49" y2="9.528" gradientUnits="userSpaceOnUse">
            <stop stop-color="#FBC82F"/>
            <stop offset="1" stop-color="#FFF48A"/>
        </linearGradient>
        <linearGradient id="jawjqstddb" x1="1.805" y1="17.378" x2="21.49" y2="9.528" gradientUnits="userSpaceOnUse">
            <stop stop-color="#FBC82F"/>
            <stop offset="1" stop-color="#FFF48A"/>
        </linearGradient>
        <linearGradient id="ywlooim9qc" x1="1.805" y1="17.378" x2="21.49" y2="9.528" gradientUnits="userSpaceOnUse">
            <stop stop-color="#FBC82F"/>
            <stop offset="1" stop-color="#FFF48A"/>
        </linearGradient>
        <linearGradient id="3unwklc9zd" x1="1.805" y1="17.378" x2="21.49" y2="9.528" gradientUnits="userSpaceOnUse">
            <stop stop-color="#FBC82F"/>
            <stop offset="1" stop-color="#FFF48A"/>
        </linearGradient>
    </defs>
</svg>
