<svg width="62" height="62" viewBox="0 0 62 62" fill="none" xmlns="http://www.w3.org/2000/svg">
    <g clip-path="url(#1geowl82za)">
        <path d="M4.89 38.111h9.444v-7.283H4.89v7.283z" fill="#F5F5F5"/>
        <mask id="x3cxea2fgb" style="mask-type:luminance" maskUnits="userSpaceOnUse" x="-3" y="8" width="68" height="46">
            <path d="M-3 8.333h68v45.333H-3V8.333z" fill="#fff"/>
        </mask>
        <g mask="url(#x3cxea2fgb)">
            <path d="M7.258 38.06c.013 0 .024-1.623.024-3.625 0-2.003-.01-3.626-.024-3.626-.013 0-.024 1.623-.024 3.626 0 2.002.011 3.625.024 3.625z" fill="#ECECEC"/>
            <path d="M5.695 37.273h.724v-.818h-.724v.818z" fill="#FAFAFA"/>
            <path d="M11.448 32.402h-1.073v-1.554h1.073v1.554zM11.448 38.09h-1.073v-1.554h1.073v1.554zM17.933 50.238H2.343V38.215h15.59v12.023z" fill="#ECECEC"/>
            <path d="M14.03 50.152c-.016 0-.03-2.68-.03-5.985 0-3.306.014-5.986.03-5.986.018 0 .032 2.68.032 5.986 0 3.305-.014 5.985-.031 5.985z" fill="#E1E1E1"/>
            <path d="M16.61 48.852h-1.196V47.5h1.195v1.35z" fill="#FAFAFA"/>
            <path d="M7.094 40.81h1.77v-2.565h-1.77v2.566zM7.094 50.203h1.77v-2.566h-1.77v2.566z" fill="#E1E1E1"/>
            <path d="M30.11 17.035c0 .013-.102.024-.227.024s-.227-.01-.227-.024c0-.013.102-.024.227-.024s.227.011.227.024zM31.016 17.035c0 .013-.102.024-.227.024s-.227-.01-.227-.024c0-.013.102-.024.227-.024s.227.011.227.024zM31.922 17.035c0 .013-.102.024-.227.024s-.226-.01-.226-.024c0-.013.101-.024.226-.024s.227.011.227.024zM32.828 17.035c0 .013-.101.024-.226.024s-.227-.01-.227-.024c0-.013.102-.024.227-.024s.226.011.226.024zM33.735 17.035c0 .013-.102.024-.227.024s-.227-.01-.227-.024c0-.013.102-.024.227-.024s.227.011.227.024zM34.64 17.035c0 .013-.1.024-.226.024-.125 0-.227-.01-.227-.024 0-.013.102-.024.227-.024s.227.011.227.024zM35.547 17.035c0 .013-.101.024-.227.024-.125 0-.226-.01-.226-.024 0-.013.101-.024.226-.024.126 0 .227.011.227.024zM36.453 17.035c0 .013-.101.024-.226.024s-.227-.01-.227-.024c0-.013.102-.024.227-.024s.226.011.226.024zM37.367 17.035c0 .013-.101.024-.226.024s-.227-.01-.227-.024c0-.013.102-.024.227-.024s.226.011.226.024zM38.274 17.035c0 .013-.102.024-.227.024s-.227-.01-.227-.024c0-.013.102-.024.227-.024s.227.011.227.024zM39.18 17.035c0 .013-.102.024-.227.024s-.226-.01-.226-.024c0-.013.101-.024.226-.024s.227.011.227.024zM40.086 17.035c0 .013-.101.024-.227.024-.125 0-.226-.01-.226-.024 0-.013.101-.024.226-.024.126 0 .227.011.227.024zM40.992 17.035c0 .013-.101.024-.226.024s-.227-.01-.227-.024c0-.013.102-.024.227-.024s.226.011.226.024zM41.899 17.035c0 .013-.102.024-.227.024s-.227-.01-.227-.024c0-.013.102-.024.227-.024s.227.011.227.024zM42.805 17.035c0 .013-.102.024-.227.024s-.226-.01-.226-.024c0-.013.101-.024.226-.024s.227.011.227.024zM43.711 17.035c0 .013-.101.024-.227.024-.125 0-.226-.01-.226-.024 0-.013.101-.024.226-.024.126 0 .227.011.227.024zM44.617 17.035c0 .013-.101.024-.226.024s-.227-.01-.227-.024c0-.013.102-.024.227-.024s.226.011.226.024zM45.524 17.035c0 .013-.102.024-.227.024s-.227-.01-.227-.024c0-.013.102-.024.227-.024s.227.011.227.024zM46.438 17.035c0 .013-.102.024-.227.024s-.227-.01-.227-.024c0-.013.102-.024.227-.024s.227.011.227.024zM47.344 17.035c0 .013-.102.024-.227.024s-.226-.01-.226-.024c0-.013.101-.024.226-.024s.227.011.227.024zM48.25 17.035c0 .013-.101.024-.227.024-.125 0-.226-.01-.226-.024 0-.013.101-.024.227-.024.125 0 .226.011.226.024zM49.157 17.035c0 .013-.102.024-.227.024s-.227-.01-.227-.024c0-.013.102-.024.227-.024s.227.011.227.024zM50.063 17.035c0 .013-.102.024-.227.024s-.227-.01-.227-.024c0-.013.102-.024.227-.024s.227.011.227.024zM50.29 17.709c-.014 0-.024-.101-.024-.227 0-.125.01-.226.023-.226s.024.101.024.226c0 .126-.01.227-.024.227zM50.29 18.615c-.014 0-.024-.101-.024-.226 0-.126.01-.227.023-.227s.024.101.024.227c0 .125-.01.226-.024.226zM50.29 19.523c-.014 0-.024-.101-.024-.226s.01-.227.023-.227.024.102.024.227-.01.226-.024.226zM50.29 20.43c-.014 0-.024-.102-.024-.227s.01-.227.023-.227.024.102.024.227-.01.227-.024.227zM50.29 21.336c-.014 0-.024-.101-.024-.227 0-.125.01-.226.023-.226s.024.101.024.226-.01.227-.024.227zM50.466 22.066c0 .012-.075.02-.177.023h-.023V22.017c0-.125.01-.226.023-.226s.024.101.024.226v.05l-.024-.023c.102.003.177.012.177.023zM51.375 22.066c0 .013-.101.024-.227.024-.125 0-.226-.01-.226-.024 0-.013.101-.023.227-.023.125 0 .226.01.226.023zM52.282 22.066c0 .013-.102.024-.227.024s-.227-.01-.227-.024c0-.013.102-.023.227-.023s.227.01.227.023zM53.188 22.066c0 .013-.102.024-.227.024s-.227-.01-.227-.024c0-.013.102-.023.227-.023s.227.01.227.023zM54.094 22.066c0 .013-.102.024-.227.024s-.226-.01-.226-.024c0-.013.101-.023.226-.023.126 0 .227.01.227.023zM55 22.066c0 .013-.101.024-.227.024-.125 0-.226-.01-.226-.024 0-.013.101-.023.227-.023.125 0 .226.01.226.023zM55.907 22.066c0 .013-.102.024-.227.024s-.227-.01-.227-.024c0-.013.102-.023.227-.023s.227.01.227.023zM56.813 22.066c0 .013-.102.024-.227.024s-.227-.01-.227-.024c0-.013.102-.023.227-.023s.227.01.227.023zM57.719 22.066c0 .013-.102.024-.227.024s-.226-.01-.226-.024c0-.013.101-.023.226-.023.126 0 .227.01.227.023zM58.07 22.62c-.013 0-.023-.102-.023-.228 0-.125.01-.226.023-.226.014 0 .024.101.024.226 0 .126-.01.227-.024.227zM58.07 23.527c-.013 0-.023-.101-.023-.226s.01-.227.023-.227c.014 0 .024.101.024.227 0 .125-.01.226-.024.226zM58.07 24.434c-.013 0-.023-.102-.023-.227s.01-.227.023-.227c.014 0 .024.102.024.227s-.01.227-.024.227zM58.07 25.34c-.013 0-.023-.102-.023-.227s.01-.226.023-.226c.014 0 .024.101.024.226s-.01.227-.024.227zM58.07 26.246c-.013 0-.023-.101-.023-.227 0-.125.01-.226.023-.226.014 0 .024.101.024.226 0 .126-.01.227-.024.227zM58.07 27.152c-.013 0-.023-.101-.023-.226s.01-.227.023-.227c.014 0 .024.101.024.227 0 .125-.01.226-.024.226zM58.07 28.06c-.013 0-.023-.101-.023-.226s.01-.227.023-.227c.014 0 .024.102.024.227s-.01.227-.024.227zM58.07 28.967c-.013 0-.023-.102-.023-.227s.01-.226.023-.226c.014 0 .024.1.024.226 0 .125-.01.227-.024.227zM58.07 29.873c-.013 0-.023-.102-.023-.227s.01-.226.023-.226c.014 0 .024.101.024.226s-.01.227-.024.227zM58.07 30.78c-.013 0-.023-.102-.023-.227 0-.126.01-.227.023-.227.014 0 .024.101.024.227 0 .125-.01.226-.024.226zM58.07 31.686c-.013 0-.023-.102-.023-.227s.01-.227.023-.227c.014 0 .024.102.024.227s-.01.227-.024.227zM34.87 18.582s-.703-.39-1.393 1.275c-.69 1.664-.926 2.611-.926 2.611s-.19.352-.437.151c-.247-.2-.612-.798-.994-.655-.397.148-.495.612-.366 1.271.13.66.361 2.116.382 2.248.02.129-.04.326-.23.216-.19-.11-1.322-1.186-1.8-.619-.48.568.184 2.346.253 2.542.069.196.036.284-.055.341-.091.057-.437-.34-.771-.634-.335-.293-.774-.574-1.023-.223-.248.35-.229 1.722 1.245 3.837l.747.936 1.191-.16c2.53-.5 3.496-1.473 3.56-1.898.065-.425-.446-.528-.89-.549-.444-.021-.97.025-.996-.08-.025-.104.013-.19.198-.283.186-.093 1.898-.912 1.948-1.653.049-.74-1.513-.752-1.726-.805-.214-.053-.12-.236-.015-.316.106-.08 1.284-.967 1.835-1.352.551-.384.803-.786.62-1.168-.176-.369-.853-.192-1.17-.22-.318-.026-.21-.411-.21-.411s.488-.846 1.147-2.523c.66-1.676-.138-1.886-.138-1.886" fill="#ECECEC"/>
            <path d="M29.547 31.63c.489-1.23 1.178-2.922 1.947-4.79a912.58 912.58 0 0 0 1.957-4.784l.586-1.453.16-.395.042-.103.016-.034-.012.036-.039.104-.152.397c-.133.346-.33.844-.574 1.459a474.271 474.271 0 0 1-1.946 4.789 919.748 919.748 0 0 0-1.958 4.785" fill="#E1E1E1"/>
            <path d="M31.594 22.82a.344.344 0 0 1 .037.078c.022.051.051.126.086.22.07.186.158.446.251.735l.234.74.072.224a.352.352 0 0 1 .023.083.36.36 0 0 1-.038-.078 5.173 5.173 0 0 1-.084-.22 24.232 24.232 0 0 1-.246-.737l-.24-.738a188.93 188.93 0 0 1-.073-.224.357.357 0 0 1-.022-.083zM32.406 24.914c-.004-.011.524-.218 1.18-.464.654-.245 1.188-.435 1.192-.425.004.01-.523.218-1.179.464-.654.245-1.189.435-1.193.425zM31.102 27.726c0-.003.03-.007.087-.011l.24-.02a19.348 19.348 0 0 0 1.573-.183l.237-.036a.367.367 0 0 1 .088-.01c0 .003-.03.012-.085.025a10.444 10.444 0 0 1-2.052.24.368.368 0 0 1-.088-.005zM29.946 25.995c.002-.001.02.021.052.063a39.92 39.92 0 0 1 1.079 1.576c.027.044.041.07.04.071a.31.31 0 0 1-.053-.063 39.41 39.41 0 0 1-1.079-1.575.312.312 0 0 1-.04-.072zM28.477 28.333a.502.502 0 0 1 .066.08l.168.23a65.895 65.895 0 0 1 1.234 1.777.504.504 0 0 1 .053.09.52.52 0 0 1-.066-.081l-.169-.23a63.998 63.998 0 0 1-1.233-1.776.522.522 0 0 1-.053-.09zM29.977 30.448c0-.003.039-.01.11-.018l.303-.034c.256-.03.609-.07.997-.127a31.85 31.85 0 0 0 1.292-.213.594.594 0 0 1 .112-.014.59.59 0 0 1-.108.03 17.002 17.002 0 0 1-2.594.374.592.592 0 0 1-.112.002z" fill="#E1E1E1"/>
            <path d="M58.076 35.293a1.402 1.402 0 1 1 0-2.804 1.402 1.402 0 0 1 0 2.804zm3.186-1.387a3.189 3.189 0 0 0-3.803-3.128 3.185 3.185 0 0 0-2.129 4.737h-.001l.009.012c.122.206.275.353.43.57l1.85 2.45c.23.305.687.305.917 0l1.82-2.41s.339-.405.462-.613l.007-.009h-.002c.278-.473.44-1.021.44-1.61zM46.219 19.74v3.747c0 .08.065.146.146.146h7.855a.146.146 0 0 0 .147-.148l-.018-1.372c0-.031-.011-.061-.03-.086l-1.126-1.506a.146.146 0 0 0-.116-.059l-1.298-.01a.146.146 0 0 1-.145-.146v-.566a.146.146 0 0 0-.146-.146h-5.123a.146.146 0 0 0-.146.146z" fill="#F5F5F5"/>
            <path d="M52 20.78v1.203c0 .046.038.084.085.083l1.734-.03a.084.084 0 0 0 .068-.131l-.81-1.196a.084.084 0 0 0-.072-.037l-.924.025a.084.084 0 0 0-.081.084z" fill="#ECECEC"/>
            <path d="M54.525 24.008h-8.462v-.261h8.462v.26z" fill="#F5F5F5"/>
            <path d="M48.862 23.847a.837.837 0 1 1-1.674 0 .837.837 0 0 1 1.674 0z" fill="#ECECEC"/>
            <path d="M48.517 23.847a.493.493 0 1 1-.986 0 .493.493 0 0 1 .986 0z" fill="#FAFAFA"/>
            <path d="M51.632 23.633c-.021 0-.038-.904-.038-2.02 0-1.115.017-2.019.038-2.019.021 0 .038.904.038 2.02 0 1.115-.017 2.019-.038 2.019zM53.424 23.847a.837.837 0 1 1-1.674 0 .837.837 0 0 1 1.674 0z" fill="#ECECEC"/>
            <path d="M53.08 23.847a.493.493 0 1 1-.986 0 .493.493 0 0 1 .985 0z" fill="#FAFAFA"/>
            <path d="M52.582 22.302c0 .02-.12.038-.267.038-.148 0-.268-.017-.268-.038 0-.021.12-.038.268-.038.147 0 .267.017.267.038z" fill="#ECECEC"/>
        </g>
        <mask id="3cg4usi45c" style="mask-type:luminance" maskUnits="userSpaceOnUse" x="-3" y="8" width="68" height="46">
            <path d="M-3 8.333h68v45.333H-3V8.333z" fill="#fff"/>
        </mask>
        <g mask="url(#3cg4usi45c)">
            <path d="M55.062 23.427c-1.1-4.17-3.544-7.284-6.976-8.76-3.431-1.475-8.34-.015-10.716 2.867-1.737 2.106-2.272 5.064-4.215 6.982-1.776 1.753-4.431 2.314-6.926 2.256-2.495-.058-4.947-.65-7.435-.844-2.488-.196-5.142.055-7.182 1.493-2.677 1.887-4.273 6.494-3.965 9.755.425 4.5 3.424 9.052 7.546 10.023l27.018.38c3.547-.09 7.438-3.468 9.311-6.73 1.001-1.745 1.883-2.147 2.817-5.33 1.519-5.18 1.675-8.48.723-12.092z" fill="#ECECEC"/>
        </g>
        <mask id="a2fd45vmfd" style="mask-type:luminance" maskUnits="userSpaceOnUse" x="-3" y="8" width="68" height="46">
            <path d="M-3 8.333h68v45.333H-3V8.333z" fill="#fff"/>
        </mask>
        <g mask="url(#a2fd45vmfd)">
            <path d="M62.833 50.238c0 .013-14.21.024-31.736.024-17.53 0-31.738-.01-31.738-.024 0-.013 14.207-.023 31.738-.023 17.525 0 31.736.01 31.736.023z" fill="#1A2E35"/>
        </g>
        <mask id="pwvvlu3k4e" style="mask-type:luminance" maskUnits="userSpaceOnUse" x="-3" y="8" width="68" height="46">
            <path d="M-3 8.333h68v45.333H-3V8.333z" fill="#fff"/>
        </mask>
        <g mask="url(#pwvvlu3k4e)">
            <path d="M12.038 49.839c1.222-.847 1.504-2.427 1.46-3.847-.006-.237.02-.487-.092-.696-.112-.208-.374-.352-.587-.252-.176.082-.254.287-.353.456-.132.224-.328.41-.558.529-.151.078-.338.125-.487.042-.204-.113-.227-.396-.225-.632l.013-1.319c.002-.235.004-.476-.069-.7-.072-.224-.234-.433-.458-.497-.224-.063-.502.065-.55.296-.02.096-.001.196-.008.294-.007.098-.053.206-.146.233-.094.027-.188-.04-.259-.11-.242-.239-.406-.546-.56-.852-.153-.305-.302-.618-.522-.878-.22-.261-.524-.468-.862-.488-.338-.02-.698.187-.785.518-.087.332.106.67.316.94.312.4.681.755 1.093 1.049.074.053.154.11.182.198.051.157-.098.313-.254.364-.176.058-.367.039-.55.06-.185.02-.384.101-.454.275-.098.24.103.494.3.66a4.51 4.51 0 0 0 1.333.775c.173.064.356.12.495.243.14.122.223.335.138.5-.085.166-.302.219-.484.185-.181-.035-.344-.134-.517-.2-.323-.123-.742-.102-.95.177-.138.184-.15.44-.082.66.068.22.207.409.355.584.518.611 1.18 1.104 1.932 1.367.75.264 1.447.337 2.195.066z" fill="#24AEB1"/>
            <path d="M11.954 50.24c-.05-.564-.075-.575-.283-1.292-.207-.718-.498-1.486-.831-2.279l-.248-.585c-.082-.193-.164-.383-.255-.565-.18-.363-.382-.7-.583-1.012a22.783 22.783 0 0 0-1.146-1.609 8.353 8.353 0 0 0-1.28-1.284l.023.023.07.062c.061.055.152.136.266.243.229.214.55.536.898.976a23.879 23.879 0 0 1 1.136 1.61c.2.313.4.649.578 1.01.09.181.17.37.253.563l.248.586c.332.792.625 1.557.833 2.272.21.714.237.723.29 1.283" fill="#1A2E35"/>
            <path d="M10.33 45.518a.487.487 0 0 0 .023-.1c.012-.066.027-.16.045-.278.034-.235.07-.56.108-.92a18.674 18.674 0 0 1 .177-1.296.47.47 0 0 0-.03.099 4.386 4.386 0 0 0-.06.274c-.046.233-.091.558-.13.918l-.096.92-.031.28a.466.466 0 0 0-.007.103zM7.297 44.94c0 .003.043.008.12.015a14.486 14.486 0 0 1 1.408.201c.419.081.795.17 1.065.243.135.036.244.067.319.089a.64.64 0 0 0 .118.03.675.675 0 0 0-.113-.047 5.924 5.924 0 0 0-.316-.102 11.51 11.51 0 0 0-2.148-.412 5.182 5.182 0 0 0-.331-.02.652.652 0 0 0-.122.003zM11.64 48.893a.156.156 0 0 0 .022-.037l.052-.11c.045-.095.106-.235.18-.408.147-.347.336-.833.537-1.371a67.26 67.26 0 0 1 .525-1.375l.167-.414.045-.112a.152.152 0 0 0 .013-.04.156.156 0 0 0-.02.036l-.053.11c-.045.095-.106.234-.18.408-.148.347-.336.832-.537 1.371a67.906 67.906 0 0 1-.692 1.788l-.045.113a.155.155 0 0 0-.013.04zM7.61 47.58a.16.16 0 0 0 .04.016l.116.04.431.141c.364.12.865.29 1.418.48.553.19 1.056.355 1.422.467.183.056.332.1.436.128l.119.032c.027.007.042.01.042.008a.167.167 0 0 0-.04-.017l-.117-.04-.43-.14c-.364-.12-.865-.29-1.418-.48a47.809 47.809 0 0 0-1.423-.468c-.183-.056-.332-.1-.435-.128l-.12-.031a.157.157 0 0 0-.042-.009z" fill="#1A2E35"/>
        </g>
        <mask id="prpeb5y47f" style="mask-type:luminance" maskUnits="userSpaceOnUse" x="-3" y="8" width="68" height="46">
            <path d="M-3 8.333h68v45.333H-3V8.333z" fill="#fff"/>
        </mask>
        <g mask="url(#prpeb5y47f)">
            <path d="M26.76 50.238H14.144c-1.525-.007-2.814-1.307-2.807-2.831l.134-31.78a2.761 2.761 0 0 1 2.774-2.75l12.677.059a2.761 2.761 0 0 1 2.748 2.773l-.134 31.78a2.761 2.761 0 0 1-2.774 2.75z" fill="#1A2E35"/>
            <path d="m26.897 14.144-2.458-.011a.61.61 0 0 0-.6.62l-.001.447a.61.61 0 0 1-.6.62l-4.79-.021a.611.611 0 0 1-.595-.627l.002-.446a.611.611 0 0 0-.594-.627l-.864-.004-2.151-.01a1.934 1.934 0 0 0-1.943 1.926l-.131 31.02a1.934 1.934 0 0 0 1.925 1.942l12.65.058a1.934 1.934 0 0 0 1.944-1.925l.13-31.02a1.934 1.934 0 0 0-1.924-1.942z" fill="#F5F5F5"/>
            <path d="m21.532 43.17-.04 1.017h1.817l-.222-1.116-1.555.099zM14.148 43.637l.016.55h7.149l.04-1.006-7.205.456zM23.18 43.066l.223 1.121h3.35l-.04-1.345-3.533.224zM21.713 27.379l.634-3.673-1.66-.123v3.796h1.026zM13.994 41.597l-1.801.705-.005 1.276 1.86-.118-.054-1.863zM13.994 41.31l-.098-3.42h-.002v-1.207l-1.67.177-.02 5.15 1.79-.702v.002zM13.887 33.99l-1.656-.22-.012 2.816 1.668-.177v-2.42zM26.237 36.734l-.07.98-1.956.212.151.775 2.222-.167-.034-1.113.177-.736-.49.05zM22.712 38.824l1.56-.117-.34-1.742-1.362.138.142 1.721zM22.727 39.005l.119 1.453.211 1.99.087.437 3.564-.226-.118-3.945-3.863.291z" fill="#F5F5F5"/>
            <path d="M14.262 37.43s.02-3.136 0-3.253l2.243-1.193.29 4.286-2.533.16zm2.33-5.278.137.235-2.748 1.603v3.803l2.9-.205 5.591-.564-.205-2.493-5.34-.698.035-.27 5.283.69-.347-4.218-5.229.503-.017-.18 5.231-.504-.18-2.201h-5.03l-4.417.804-.022 5.04 1.673.221 2.685-1.566zM26.055 36.752l-2.032.205.154.79L26 37.55l.056-.798zM21.558 42.497l-.019.49 1.512-.096-.077-.39-1.416-.004zM18.302 27.38l.267-1.207h2.03v-2.595l-6.349-.47v2.436l-1.983.448-.01 2.188 4.392-.8h1.653zM22.535 20.16l-.054-.222 2.425-.96-1.577-3.165a.57.57 0 0 1-.087.007l-2.68-.012.073 4.43 1.9-.077zM26.214 18.463l-.003-4.322-1.764-.008a.61.61 0 0 0-.6.62l-.002.447a.63.63 0 0 1-.26.511l1.579 3.168 1.05-.416zM16.665 14.559l.065 3.706-2.549-.373.559-3.333h1.925zm.437 4.09-.205-4.552-.49-.002-1.918-.009-.817 4.07 3.43.492zM17.19 18.662l.001.039c.004.355.012.994.017 1.678l3.34-.137-.074-4.434-2.02-.01a.611.611 0 0 1-.595-.626l.002-.446a.611.611 0 0 0-.594-.626l-.283-.002.205 4.564h.002zM13.395 18.117l.809-4.03a1.933 1.933 0 0 0-1.899 1.924l-.008 2.009.008-.06 1.09.157z" fill="#F5F5F5"/>
            <path d="m13.975 23.087-1.698-.126-.011 2.752 1.71-.387v-2.239zM13.38 18.205l-1.08-.155-.019 4.456.233.017.867-4.318zM16.813 41.257l.028-3.577-2.857.202.101 3.505 2.728-.13zM17.338 40.432l4.046 1.938c.049-1.266.092-2.45.088-2.526l.087-.005.043-.085c.058.029.058.029.028.892-.017.482-.041 1.123-.066 1.764h1.4l-.207-1.944-.275-3.353-5.287.533.143 2.786zM27.255 34.495l-.046-.471-4.85.504.204 2.486 4.188-.423.504-2.096zM20.596 26.443h-1.811l-.207.936h2.018v-.936zM22.133 27.515l.244-.676 3.94.249.229 1.935-4.28.508-.133-2.016zm4.37-.756-4.537-.314-.185 1.072.191 2.327 4.786-.46-.254-2.625zM26.972 31.622l-.2-2.057-4.788.46.18 2.19 4.808-.593zM14.055 43.642l-1.857.118-.008-.12-.002.547h1.883l-.016-.544zM28.791 17.44l.027.069.006-1.425a1.934 1.934 0 0 0-1.925-1.942l-.602-.002.003 4.286 2.491-.986z" fill="#F5F5F5"/>
            <path d="m14.263 41.712 3.94-.277 2.563 1.19-6.503.352v-1.265zm7.116.758-4.13-1.979-.146-2.835-.173.017-.029 3.672-2.815.133.002.082v.002l.055 1.893L21.359 43l.02-.53zM27.62 22.201l.168-1.002c-1.48-.529-1.583-2.073-1.579-2.54l-.967.382 1.456 2.922.921.238zM22.333 34.258l2.014-.21-.397-1.778-1.762.217.145 1.77zM26.514 23.736h-3.761l-.313-.023-.424 2.462 4.464.31-.104-1.071.44-1.582-.302-.096zM24.906 19.503l1.354 2.577-.195.803-2.318-.087-.58-2.437 1.739-.856zm1.52 3.782.047-1.175-1.478-2.968-2.292.907.788 3.236h2.935zM27 37.469l.07 2.309 1.629-.092.005.09-1.632.092.083 2.764 1.54-.097.012.18-1.547.098.042 1.374h1.501l.033-7.705-1.536.155-.2.832zM17.103 18.74l-3.451-.495-.863 4.3 4.329.32c.017-.662.002-2.692-.015-4.125zM22.778 23.285h.522l-.739-3.034-1.92.079.046 2.8 2.09.155zM17.203 22.872l3.39.251-.046-2.79-3.34.136c.008.944.01 1.95-.004 2.403zM27.006 31.894l-2.96.365.398 1.78 2.742-.285-.18-1.86z" fill="#F5F5F5"/>
            <path d="m27.802 21.107.189-1.124.817.063.01-2.422-2.52.997c-.05 1.705 1.02 2.304 1.504 2.486zM26.836 25.454l.103 1.063 1.845.128.01-2.188-1.545-.488-.413 1.485zM27.711 34.528l-.484 2.015 1.513-.153.009-2.113c-.464-.122-.87-.222-1.088-.264l.05.515zM26.688 23.318l2.102.664.005-1.195-2.065-.534-.043 1.065zM27.635 33.736c.17.026.49.094 1.115.258l.02-4.62-1.543.148.408 4.214zM27.215 29.34l1.562-.15.01-2.274-1.818-.125.246 2.549z" fill="#F5F5F5"/>
            <path d="M27.984 21.164c.296.09.572.16.827.211l.005-1.147-.665-.052-.167.988zM27.797 22.247l1.004.259.004-1.037a9.044 9.044 0 0 1-.841-.214l-.167.992z" fill="#F5F5F5"/>
            <path d="M14.084 41.563v-.002l-.003-.082 2.815-.134.03-3.671.173-.018.145 2.836 4.13 1.978-.02.529-7.216.456-.054-1.892zm2.75-3.882-.028 3.578-2.728.13-.1-3.505 2.857-.203zm5.917 2.786.206 1.944h-1.399l.065-1.764c.03-.863.03-.863-.027-.892l-.043.085-.088.005c.004.075-.039 1.26-.087 2.527l-4.046-1.939-.143-2.786 5.286-.533.276 3.353zm-.397-5.938 4.85-.505.046.472-.504 2.096-4.188.422-.204-2.485zm4.418-4.963.2 2.058-4.808.592-.18-2.19 4.788-.46zm-4.993-2.047.184-1.072 4.538.314.254 2.624-4.785.46-.191-2.326zm-2.997-1.074h1.812v.936h-2.018l.206-.936zm3.562-2.737-.634 3.673h-1.025v-3.796l1.659.123zm-8.698-5.462 3.45.495c.018 1.432.033 3.463.016 4.125l-4.33-.32.864-4.3zm6.898 2.087.046 2.79-3.39-.25a85.58 85.58 0 0 0 .004-2.403l3.34-.137zm2.011-.082.74 3.034h-.523l-2.091-.155-.046-2.8 1.92-.079zm2.43-1.109 1.478 2.968-.047 1.175H23.48l-.788-3.236 2.292-.907zm1.22-.483c-.004.468.099 2.012 1.58 2.54l-.17 1.003-.92-.238-1.456-2.922.966-.383zm.27 7.827-4.465-.309.425-2.462.312.023h3.761l.302.096-.44 1.582.104 1.07zm-2.039 7.553-.397-1.78 2.959-.365.18 1.86-2.742.285zm-.487-1.769.396 1.778-2.013.21-.146-1.77 1.763-.218zm2.63 6.264-2.22.168-.152-.776 1.956-.211.07-.98.49-.05-.177.737.034 1.112zm-2.651-1.567.34 1.742-1.561.117-.141-1.721 1.362-.138zm.09-.009 2.032-.205-.057.798-1.82.196-.155-.789zm-.878 5.928-.087-.436-.212-1.991-.12-1.452 3.864-.291.118 3.945-3.563.225zm-1.604.101.019-.49 1.416.005.077.39-1.512.095zm-7.483.655.015.545h.091l-.016-.55 7.204-.456-.04 1.007h.182l.04-1.018 1.555-.099.223 1.117h.092l-.224-1.123 3.534-.223.04 1.346h.454l-.041-1.375 1.546-.098-.011-.18-1.54.097-.084-2.764 1.632-.091-.005-.09-1.63.09-.069-2.308.2-.832 1.536-.155v-.091l-1.513.153.484-2.016-.05-.515c.218.042.624.142 1.088.264l.001-.282c-.625-.164-.946-.233-1.115-.258l-.408-4.215 1.543-.148v-.182l-1.56.15-.248-2.55 1.818.126.001-.272-1.845-.128-.103-1.062.413-1.486 1.545.488.002-.475-2.103-.663.042-1.066 2.066.534v-.28l-1.003-.26.167-.992c.301.092.582.162.841.214v-.093a8.775 8.775 0 0 1-.826-.21l.167-.989.665.052v-.182l-.817-.064-.189 1.125c-.484-.183-1.554-.782-1.503-2.486l2.52-.997v-.115l-.027-.07-2.492.987-.003-4.287h-.09l.003 4.322-1.05.416-1.579-3.168a.578.578 0 0 1-.252.103l1.577 3.165-2.425.96.054.222-1.9.078-.072-4.43-.091-.001.073 4.434-3.34.137c-.005-.684-.012-1.323-.016-1.678v-.039h-.002l-.205-4.564h-.09l.204 4.55-3.43-.491.817-4.07-.234-.001-.044.002-.809 4.03-1.09-.157-.008.06v.03l1.08.156-.867 4.318-.232-.017-.002.454 1.698.126v2.239l-1.71.387-.001.279 1.983-.449v-2.436l6.349.47v2.595h-2.03l-.267 1.208h-1.653l-4.391.799-.001.277 4.417-.804h5.03l.18 2.201-5.231.503.017.18 5.23-.502.346 4.219-5.283-.69-.036.269 5.341.698.205 2.492-5.59.565-2.902.205V33.99l2.749-1.603-.137-.235-2.685 1.566-1.673-.22v.274l1.656.218v2.42l-1.669.177v.273l1.669-.176v1.206h.001l.099 3.42h-.001l-1.79.7-.002.293 1.8-.705.054 1.863-1.86.118v.06l.008.121 1.858-.117z" fill="#fff"/>
            <path d="m18.206 41.435-3.94.277v1.265l6.503-.352-2.563-1.19zM26.325 27.088l-3.94-.249-.244.677.133 2.015 4.28-.507-.229-1.936zM14.102 48.973l12.651.058a1.934 1.934 0 0 0 1.943-1.925l.012-2.919H12.189l-.01 2.208v.694a1.933 1.933 0 0 0 1.923 1.884zM16.72 18.264l-.065-3.707H14.73l-.558 3.334 2.549.373zM26.053 22.883l.196-.803-1.354-2.577-1.739.855.58 2.438 2.317.087zM14.266 34.177c.02.117 0 3.253 0 3.253l2.533-.16-.29-4.286-2.243 1.193zM22.712 36.723l-.134-1.944 4.345-.558v.335l-.525 1.787-3.686.38z" fill="#ECECEC"/>
            <path d="M19.496 20.608a.53.53 0 1 1-1.059 0 .53.53 0 0 1 1.059 0z" fill="#24AEB1"/>
            <mask id="6086htfisg" style="mask-type:luminance" maskUnits="userSpaceOnUse" x="18" y="20" width="2" height="2">
                <path d="M18.438 20.078h1.058v1.059h-1.058v-1.059z" fill="#fff"/>
            </mask>
            <g mask="url(#6086htfisg)">
                <path d="M19.495 20.585a.53.53 0 1 1-1.057.045.53.53 0 0 1 1.057-.045z" fill="#fff" opacity=".6"/>
            </g>
            <path d="M19.321 20.59a.352.352 0 1 1-.704 0 .352.352 0 0 1 .704 0zM27.148 41.746a.226.226 0 1 1-.453 0 .226.226 0 0 1 .453 0z" fill="#24AEB1"/>
            <path d="m26.783 41.674-.054-1.267-3.82.185a.578.578 0 0 1-.289-.061l-5.417-2.736a.394.394 0 0 1-.215-.33l-.738-14.302a.24.24 0 0 1 .257-.25l2.322.171v-2.538h.272v2.573a.24.24 0 0 1-.257.24l-2.32-.173.735 14.265a.12.12 0 0 0 .067.1l5.417 2.737c.047.024.1.035.153.033l3.851-.188a.24.24 0 0 1 .252.23l.056 1.3-.272.01z" fill="#24AEB1"/>
            <path d="M17.387 29.373a.686.686 0 1 1-1.372 0 .686.686 0 0 1 1.372 0z" fill="#24AEB1"/>
            <path d="M17.171 29.372a.476.476 0 1 1-.952 0 .476.476 0 0 1 .952 0z" fill="#FAFAFA"/>
            <path d="M16.698 28.93a.443.443 0 1 0 0 .886.443.443 0 0 0 0-.886zm0 .953a.51.51 0 1 1 0-1.022.51.51 0 0 1 0 1.022zM20.739 26.497h-3.264a.287.287 0 0 0-.288.287v1.182c0 .159.13.287.288.287h.038v.282l.327-.282h2.899a.287.287 0 0 0 .287-.287v-1.182a.287.287 0 0 0-.287-.287z" fill="#24AEB1"/>
            <mask id="uzaqwxpefh" style="mask-type:luminance" maskUnits="userSpaceOnUse" x="17" y="26" width="5" height="3">
                <path d="M17.188 26.497h3.838v2.038h-3.838v-2.038z" fill="#fff"/>
            </mask>
            <g mask="url(#uzaqwxpefh)">
                <path d="M20.739 26.497h-3.264a.287.287 0 0 0-.288.287v1.182c0 .159.13.287.288.287h.038v.282l.327-.282h2.899a.287.287 0 0 0 .287-.287v-1.182a.287.287 0 0 0-.287-.287z" fill="#fff" opacity=".4"/>
            </g>
            <path d="M18.261 27.356a.139.139 0 0 0-.142-.142.139.139 0 0 0-.144.142c0 .082.06.142.143.142.082 0 .143-.06.143-.142zm-.34 0c0-.108.084-.189.198-.189.112 0 .195.08.195.19 0 .108-.083.188-.195.188-.114 0-.197-.08-.197-.189zM18.621 27.402c0-.06-.04-.098-.094-.098-.053 0-.094.039-.094.098 0 .06.04.099.094.099.053 0 .094-.04.094-.099zm.051 0c0 .085-.06.143-.141.143a.118.118 0 0 1-.1-.048v.045h-.048v-.391h.05v.154a.12.12 0 0 1 .098-.045c.082 0 .141.057.141.142zM18.739 27.175c0-.018.014-.033.034-.033.02 0 .034.014.034.032a.033.033 0 0 1-.034.034c-.02 0-.034-.014-.034-.033zm-.09.455.016-.04c.01.01.024.014.04.014.028 0 .043-.017.043-.05v-.292h.05v.292c0 .057-.031.093-.089.093a.1.1 0 0 1-.06-.017zM18.918 27.383h.179a.087.087 0 0 0-.09-.08.087.087 0 0 0-.09.08zm.226.036h-.226c.006.049.046.082.101.082.033 0 .06-.012.08-.034l.029.033a.14.14 0 0 1-.11.045c-.09 0-.15-.06-.15-.143 0-.083.059-.142.14-.142.08 0 .137.058.137.144v.015zM19.188 27.402c0-.083.061-.142.147-.142.05 0 .092.02.114.06l-.039.024a.087.087 0 0 0-.075-.04c-.055 0-.096.039-.096.098 0 .06.04.099.096.099.03 0 .058-.013.075-.04l.039.024c-.022.039-.064.06-.114.06-.086 0-.148-.06-.148-.143zM19.681 27.525a.095.095 0 0 1-.06.02c-.057 0-.09-.031-.09-.088v-.153h-.047v-.042h.048v-.06h.05v.06h.08v.042h-.08v.151c0 .03.016.047.044.047a.064.064 0 0 0 .04-.013l.015.036zM19.743 27.262h.05v.279h-.05v-.28zm-.009-.087c0-.018.015-.033.035-.033.02 0 .034.014.034.032a.033.033 0 0 1-.034.034c-.02 0-.035-.014-.035-.033zM20.132 27.262l-.122.279h-.052l-.122-.28h.053l.096.225.098-.224h.05zM20.199 27.383h.18a.087.087 0 0 0-.09-.08.087.087 0 0 0-.09.08zm.227.036h-.227c.006.049.046.082.101.082.033 0 .06-.012.08-.034l.029.033a.14.14 0 0 1-.11.045c-.09 0-.15-.06-.15-.143 0-.083.059-.142.14-.142.08 0 .138.058.138.144l-.001.015z" fill="#fff"/>
            <path d="M18.976 19.125a.299.299 0 1 1 0-.597.299.299 0 0 1 0 .597zm.678-.295a.68.68 0 1 0-1.263.343l.001.002c.026.044.059.075.092.122l.394.521c.049.065.146.065.195 0l.388-.513s.072-.086.098-.13l.002-.002c.059-.101.093-.218.093-.343z" fill="#24AEB1"/>
            <path d="M15.267 45.566h-.126v-.046h.305v.046h-.127v.323h-.052v-.323zM15.677 45.748c0-.06-.04-.098-.094-.098s-.094.038-.094.098c0 .06.04.098.094.098s.094-.039.094-.098zm-.24 0c0-.084.062-.142.146-.142.084 0 .145.058.145.142a.139.139 0 0 1-.145.143.14.14 0 0 1-.146-.143zM15.955 45.871a.095.095 0 0 1-.061.02c-.057 0-.089-.032-.089-.088v-.153h-.047v-.042h.047v-.061h.05v.061h.081v.042h-.08v.151c0 .03.016.047.043.047a.065.065 0 0 0 .04-.013l.016.036zM16.192 45.802v-.039h-.078c-.05 0-.064.02-.064.043 0 .028.023.046.062.046.038 0 .068-.018.08-.05zm.051-.083v.168h-.048v-.037c-.017.026-.048.04-.092.04-.063 0-.103-.033-.103-.082 0-.044.029-.081.112-.081h.08v-.01c0-.043-.024-.068-.075-.068a.14.14 0 0 0-.088.03l-.021-.038a.186.186 0 0 1 .115-.036c.077 0 .12.037.12.114zM16.336 45.498h.05v.39h-.05v-.39zM16.833 45.748c0-.06-.04-.098-.094-.098-.053 0-.094.038-.094.098 0 .06.04.098.094.098.053 0 .094-.039.094-.098zm.05-.252v.392h-.048v-.045a.118.118 0 0 1-.1.048.136.136 0 0 1-.141-.143c0-.086.06-.142.141-.142a.12.12 0 0 1 .098.044v-.154h.05zM16.978 45.61h.05v.279h-.05v-.28zm-.01-.087c0-.019.015-.033.035-.033.02 0 .034.014.034.032a.033.033 0 0 1-.034.034c-.02 0-.034-.015-.034-.033zM17.094 45.858l.02-.04a.18.18 0 0 0 .099.029c.047 0 .066-.014.066-.038 0-.063-.176-.008-.176-.12 0-.05.044-.084.116-.084.037 0 .078.01.102.026l-.022.04a.146.146 0 0 0-.08-.022c-.045 0-.066.016-.066.038 0 .066.177.012.177.12 0 .051-.046.084-.12.084a.202.202 0 0 1-.116-.033zM17.549 45.871a.095.095 0 0 1-.061.02c-.057 0-.089-.032-.089-.088v-.153h-.047v-.042h.047v-.061h.05v.061h.08v.042h-.08v.151c0 .03.016.047.044.047a.064.064 0 0 0 .04-.013l.016.036zM17.786 45.802v-.039h-.078c-.05 0-.064.02-.064.043 0 .028.023.046.062.046.037 0 .067-.018.08-.05zm.05-.083v.168h-.047v-.037c-.017.026-.048.04-.092.04-.063 0-.103-.033-.103-.082 0-.044.029-.081.112-.081h.08v-.01c0-.043-.025-.068-.075-.068a.14.14 0 0 0-.088.03l-.021-.038a.186.186 0 0 1 .115-.036c.077 0 .12.037.12.114zM18.187 45.728v.16h-.05v-.154c0-.055-.028-.082-.076-.082-.054 0-.088.032-.088.093v.144h-.051v-.28h.048v.042c.02-.028.057-.044.101-.044.068 0 .116.039.116.12zM18.258 45.748c0-.084.062-.142.147-.142.05 0 .092.02.114.059l-.038.025a.087.087 0 0 0-.076-.04c-.055 0-.096.038-.096.098 0 .06.041.098.096.098.03 0 .058-.012.076-.04l.038.025c-.022.039-.063.06-.114.06-.085 0-.147-.06-.147-.143zM18.605 45.728h.18a.087.087 0 0 0-.09-.08.087.087 0 0 0-.09.08zm.227.037h-.227c.007.049.046.081.101.081.033 0 .06-.01.081-.033l.028.032a.14.14 0 0 1-.11.046c-.09 0-.15-.06-.15-.143 0-.083.06-.142.14-.142.08 0 .138.057.138.143l-.001.016zM15.599 46.301v.88h-.204v-.716h-.176V46.3h.38zM15.985 47.068a.293.293 0 0 1-.034.126l-.072.181h-.124l.055-.2c-.041-.016-.068-.055-.068-.107 0-.073.053-.12.122-.12.07 0 .12.048.12.12zM16.395 46.301v.88h-.203v-.716h-.176V46.3h.38zM17.096 46.742c0-.2-.07-.283-.172-.283-.1 0-.17.083-.17.283 0 .2.07.283.17.283.102 0 .172-.083.172-.283zm-.55 0c0-.29.162-.455.378-.455.218 0 .377.165.377.455 0 .29-.16.455-.377.455-.216 0-.377-.165-.377-.455zM17.956 46.742c0-.2-.07-.283-.172-.283-.101 0-.172.083-.172.283 0 .2.07.283.172.283.101 0 .172-.083.172-.283zm-.55 0c0-.29.161-.455.378-.455s.377.165.377.455c0 .29-.16.455-.378.455-.216 0-.377-.165-.377-.455zM19.8 46.794v.388h-.197v-.358c0-.109-.049-.16-.128-.16-.088 0-.15.057-.15.178v.34h-.196v-.358c0-.109-.046-.16-.128-.16-.087 0-.149.057-.149.178v.34h-.196v-.677h.188v.078a.274.274 0 0 1 .212-.088c.095 0 .175.037.223.11a.304.304 0 0 1 .244-.11c.16 0 .276.093.276.3z" fill="#1A2E35"/>
            <path d="M14.698 46.233a.76.76 0 1 1-1.518 0 .76.76 0 0 1 1.518 0z" fill="#24AEB1"/>
            <path d="M13.63 46.37c0-.004.072-.008.196-.012.124-.003.3-.006.513-.008l-.015.034-.194-.224-.012-.014.011-.015.192-.239.018.038h-.086l-.622-.002.02-.021c-.001.23-.004.424-.008.56a1.334 1.334 0 0 1-.012.215c-.005 0-.01-.079-.013-.215-.004-.136-.006-.33-.008-.56v-.021h.02l.623-.003h.136l-.031.039-.193.238v-.03c.067.08.13.157.19.227l.029.034h-.045c-.212-.002-.39-.005-.513-.009a1.16 1.16 0 0 1-.195-.012z" fill="#FAFAFA"/>
            <path d="M26.218 44.938h-2.295a.439.439 0 0 0-.439.439v1.806c0 .243.197.44.44.44h.058v.43l.499-.43h1.737a.44.44 0 0 0 .44-.44v-1.806a.44.44 0 0 0-.44-.44z" fill="#24AEB1"/>
            <path d="M24.14 45.766v.927c0 .02.017.035.037.035h1.942c.02 0 .036-.016.036-.036l-.005-.34a.037.037 0 0 0-.007-.02l-.278-.373a.036.036 0 0 0-.029-.014l-.32-.003a.036.036 0 0 1-.037-.036v-.14a.036.036 0 0 0-.036-.036h-1.266a.036.036 0 0 0-.036.036z" fill="#FAFAFA"/>
            <path d="M25.563 46.024v.297c0 .012.009.021.02.02l.43-.007a.02.02 0 0 0 .016-.032l-.2-.296a.02.02 0 0 0-.018-.009l-.228.006a.02.02 0 0 0-.02.02z" fill="#24AEB1"/>
            <path d="M26.193 46.822h-2.091v-.064h2.091v.064z" fill="#FAFAFA"/>
            <path d="M24.789 46.781a.207.207 0 1 1-.414 0 .207.207 0 0 1 .414 0z" fill="#24AEB1"/>
            <path d="M24.712 46.782a.122.122 0 1 1-.243 0 .122.122 0 0 1 .243 0z" fill="#FAFAFA"/>
            <path d="M25.478 46.728c-.005 0-.01-.223-.01-.499 0-.275.005-.499.01-.499s.01.224.01.5c0 .275-.005.498-.01.498zM25.914 46.781a.207.207 0 1 1-.414 0 .207.207 0 0 1 .414 0z" fill="#24AEB1"/>
            <path d="M25.837 46.782a.122.122 0 1 1-.243 0 .122.122 0 0 1 .243 0z" fill="#FAFAFA"/>
            <path d="M25.71 46.4c0 .006-.03.01-.066.01-.036 0-.066-.004-.066-.01 0-.005.03-.009.066-.009.037 0 .067.005.067.01z" fill="#24AEB1"/>
        </g>
        <mask id="q02sr366oi" style="mask-type:luminance" maskUnits="userSpaceOnUse" x="-3" y="8" width="68" height="46">
            <path d="M-3 8.333h68v45.333H-3V8.333z" fill="#fff"/>
        </mask>
        <g mask="url(#q02sr366oi)">
            <path d="M47.348 31.193s1.463.247 1.581.279c.118.031.581.25.605.392.023.142 0 .558 0 .558s-.084.068-.136-.068c-.053-.136-.045-.406-.045-.406l-.26-.1.142.252.024.589s-.181-.017-.216-.158c-.035-.14-.035-.298-.035-.298l-.189-.16.142.192.047.424s-.138.044-.181-.05c-.044-.094-.047-.374-.047-.374l-.533-.187-.353.197-.66-.373.114-.709z" fill="#FFBF9D"/>
            <path d="M42.228 27.578c.006.029 1.762 2.446 1.762 2.446l3.527 1.096-.16 1.325-4.323-.87-1.534-1.76.728-2.237z" fill="#24AEB1"/>
            <mask id="z94s1tyo6j" style="mask-type:luminance" maskUnits="userSpaceOnUse" x="41" y="27" width="7" height="6">
                <path d="M41.5 27.578h6.017v4.867H41.5v-4.867z" fill="#fff"/>
            </mask>
            <g mask="url(#z94s1tyo6j)">
                <path d="M42.228 27.578c.006.029 1.762 2.446 1.762 2.446l3.527 1.096-.16 1.325-4.323-.87-1.534-1.76.728-2.237z" fill="#000" opacity=".2"/>
            </g>
            <path d="M36.084 32.309h-7.206a.276.276 0 0 1-.276-.277v-.851c0-.153.123-.277.276-.277h7.206c.153 0 .277.124.277.276v.852a.276.276 0 0 1-.277.277z" fill="#F5F5F5"/>
            <path d="M36.085 32.309c0-.002.016 0 .046-.007a.275.275 0 0 0 .221-.238c.004-.085 0-.187 0-.299 0-.113 0-.239-.002-.376l-.001-.215a.264.264 0 0 0-.195-.247c-.038-.01-.079-.009-.123-.009l-.264.001-.577.002-6.31.007c-.072 0-.141.03-.188.083a.261.261 0 0 0-.066.195v.789c0 .038 0 .07.009.104a.254.254 0 0 0 .216.185c.032.003.071.001.107.002l1.676.001 2.837.005 1.913.008.52.004a41 41 0 0 0 .135.002l.046.003-.046.002-.135.003-.52.004-1.913.008c-.808 0-1.77.003-2.837.005h-1.676c-.037 0-.071.002-.112 0a.297.297 0 0 1-.256-.22.407.407 0 0 1-.011-.116v-.789a.3.3 0 0 1 .3-.325l6.311.007.577.001.264.001c.042 0 .087-.002.13.01a.29.29 0 0 1 .213.273l-.001.216-.002.376c-.002.113 0 .212-.005.3a.281.281 0 0 1-.234.242c-.031.004-.047.002-.047.002zM51.766 46.5a3.707 3.707 0 1 0 7.414.106 3.707 3.707 0 0 0-7.414-.107z" fill="#1A2E35"/>
            <path d="m51.767 46.49-.001.01a3.707 3.707 0 0 0 7.414.106v-.01l-7.413-.106z" fill="#1A2E35"/>
            <path d="M52.875 46.514a2.603 2.603 0 1 0 5.205.075 2.603 2.603 0 0 0-5.205-.075z" fill="#FAFAFA"/>
            <path d="M55.515 43.95a2.603 2.603 0 0 0-2.64 2.565l5.205.075a2.603 2.603 0 0 0-2.565-2.64z" fill="#E1E1E1"/>
            <path d="M53.89 46.53a1.585 1.585 0 1 0 3.171.046 1.585 1.585 0 0 0-3.17-.046z" fill="#1A2E35"/>
            <path d="M53.718 41.117s3.796-1.148 5.365 2.976l-7.942 2.46 2.577-5.436z" fill="#24AEB1"/>
            <path d="M28.891 46.5a3.707 3.707 0 1 0 7.414.106 3.707 3.707 0 0 0-7.414-.107z" fill="#1A2E35"/>
            <path d="m28.892 46.49-.001.01a3.707 3.707 0 0 0 7.414.106v-.01l-7.413-.106z" fill="#1A2E35"/>
            <path d="M30 46.514a2.603 2.603 0 1 0 5.205.075A2.603 2.603 0 0 0 30 46.514z" fill="#FAFAFA"/>
            <path d="M32.64 43.95A2.603 2.603 0 0 0 30 46.515l5.205.075a2.603 2.603 0 0 0-2.565-2.64z" fill="#E1E1E1"/>
            <path d="M31.016 46.53a1.585 1.585 0 1 0 3.17.046 1.585 1.585 0 0 0-3.17-.046z" fill="#1A2E35"/>
            <path d="M37.876 45.063c-.021.011-1.951-.298-1.951-.298a1.182 1.182 0 0 1-.88.461c-.835.04-1.65.077-2.356.108a1.196 1.196 0 0 0-1.141 1.245v.001a1.197 1.197 0 0 0 1.149 1.146l4.105.162c.675.026 1.573-.384 1.994-.912l-.92-1.913z" fill="#375A64"/>
            <path d="M27.783 43.423S27.606 39.81 31 39.057v-.463h11.895V39.7S41.15 41.8 41.72 43.547c.57 1.745.748 1.924.748 1.924h6.77s.82-1.034.855-2.566c.036-1.532-.6-4.152-1.076-5.826-.432-1.523-.705-2.796-.705-2.796l2.03-.677s3.758 4.913 3.912 5.19c.153.276.675.92.552 2.333-.122 1.412-3.5 5.771-4.39 6.263-.89.49-1.688.521-2.486.644-.693.107-5.818.036-7.158.016a2.626 2.626 0 0 1-1.324-.368c-.4-.243-.702-.645-1.035-1.305l-.706-1.382-9.924-1.574z" fill="#24AEB1"/>
            <path d="M28.698 43.172 27.2 45.519c-.192.3.118.678.445.536.159-.069.33-.176.503-.34.685-.652 1.906-2.37 1.906-2.37l-1.356-.173z" fill="#375A64"/>
            <path d="m39.436 43.596.008-.034.03-.099c.026-.087.057-.217.079-.387.038-.338.02-.854-.232-1.416a2.968 2.968 0 0 0-.552-.83 3.629 3.629 0 0 0-.91-.695 4.599 4.599 0 0 0-1.188-.442 6.222 6.222 0 0 0-1.357-.14c-.47 0-.926.041-1.365.1a14.2 14.2 0 0 0-1.256.222c-.793.178-1.484.442-2.018.747a5.014 5.014 0 0 0-1.153.88 4.628 4.628 0 0 0-.35.403s.101-.164.337-.416a4.897 4.897 0 0 1 1.15-.896c.535-.31 1.228-.579 2.024-.76.398-.092.82-.166 1.26-.226.44-.06.9-.102 1.37-.102.472 0 .933.045 1.368.143.434.098.84.252 1.199.449.36.195.668.44.918.706.248.267.431.559.554.843.251.57.263 1.092.22 1.432a2.354 2.354 0 0 1-.123.485.173.173 0 0 1-.013.033z" fill="#1A2E35"/>
            <path d="M38.755 42.783c-.006-.002.02-.057.044-.16.028-.104.04-.261.014-.45a1.863 1.863 0 0 0-.221-.63 2.226 2.226 0 0 0-.514-.635 2.598 2.598 0 0 0-.708-.413 3.3 3.3 0 0 0-.649-.178 4.36 4.36 0 0 0-.452-.051c-.108-.007-.167-.01-.167-.013 0-.002.015-.003.043-.004.028 0 .07-.003.125-.002.108.001.265.01.457.037.192.027.418.08.66.17.239.093.493.226.721.418.114.096.215.202.3.313.088.11.162.224.222.338.123.226.194.451.216.646.023.194.005.354-.029.458-.01.053-.034.09-.043.117a.155.155 0 0 1-.02.04z" fill="#F5F5F5"/>
            <mask id="mgg3wjjetk" style="mask-type:luminance" maskUnits="userSpaceOnUse" x="36" y="39" width="5" height="5">
                <path d="M36.422 39.618h3.888v4.216h-3.888v-4.216z" fill="#fff"/>
            </mask>
            <g mask="url(#mgg3wjjetk)">
                <path d="M36.422 39.618a4.758 4.758 0 0 1 1.791.73c.545.363.962.879 1.2 1.49.237.61.202 1.42-.048 1.926l.84.07c.283-.944-.025-2.102-.705-2.84-.797-.867-1.895-1.376-3.078-1.376z" fill="#000" opacity=".4"/>
            </g>
            <path d="M36.162 38.594h-7.353a.778.778 0 0 1-.778-.778v-4.801c0-.43.349-.778.778-.778h7.353c.43 0 .777.348.777.778v4.8c0 .43-.348.779-.777.779z" fill="#375A64"/>
            <path d="M36.938 33.656c0 .013-2.003.024-4.473.024-2.47 0-4.473-.01-4.473-.024 0-.013 2.003-.023 4.473-.023 2.47 0 4.473.01 4.473.023zM42.894 39.015c0 .014-2.673.024-5.97.024-3.298 0-5.97-.01-5.97-.024 0-.013 2.672-.023 5.97-.023 3.297 0 5.97.01 5.97.023z" fill="#1A2E35"/>
            <path d="M42.896 38.594s.196-.234.215-.533c.018-.299-.118-.672-.44-.672h-4.107c-.665 0-1.205.54-1.205 1.205h5.537z" fill="#375A64"/>
            <path d="m48.314 34.283-.714-1.49a.912.912 0 0 1 .36-1.165l2.136-1.274a.722.722 0 0 1 .37-.101h.461l.185 3.01-.712.273.45.733-2.536.014z" fill="#24AEB1"/>
            <path d="M50.938 30.361s.73.168.822 1.295c.092 1.126-.644 1.477-.644 1.477l-.178-2.772z" fill="#ECECEC"/>
            <path d="M48.565 32.211s-1.478.7-1.658.815c-.125.08-.233.22-.134.465.167.418.858.025.858.025l1.375-.688s.528-.25.333-.561c-.218-.35-.774-.056-.774-.056z" fill="#1A2E35"/>
            <path d="M46.476 31.954s1.387.238 1.505.27c.118.03.581.25.605.392.023.142 0 .558 0 .558s-.084.068-.136-.068c-.053-.137-.045-.406-.045-.406l-.26-.1.142.252.024.589s-.181-.017-.217-.158c-.035-.14-.034-.298-.034-.298l-.189-.16.141.192.048.424s-.138.044-.181-.05c-.044-.094-.047-.374-.047-.374l-.533-.187-.353.197-.555-.304.085-.769z" fill="#FFBF9D"/>
            <path d="M48.638 30.022c0 .562-.258 1.017-.577 1.017-.318 0-.577-.455-.577-1.017 0-.562.259-1.017.577-1.017.319 0 .577.455.577 1.017z" fill="#1A2E35"/>
            <path d="m48.156 30.722.317 1.098c.142-.072.171-.212.148-.324-.08-.376-.125-.644-.212-.973-.01-.034-.253.2-.253.2z" fill="#1A2E35"/>
            <mask id="it7m2p02xl" style="mask-type:luminance" maskUnits="userSpaceOnUse" x="41" y="33" width="12" height="15">
                <path d="M41.453 33.786h11.101v13.253h-11.1V33.786z" fill="#fff"/>
            </mask>
            <g mask="url(#it7m2p02xl)">
                <path d="M41.877 44.016c-.032-.09-.063-.183-.094-.278-.028-.089-.061-.18-.086-.269a2.935 2.935 0 0 1-.079-.414c-.534 2.178.282 3.711 1.684 3.819 2.049.157 4.546.272 5.557.007 1.841-.483 2.517-2.019 2.678-2.272.161-.253 1.626-2.93.729-5.508-.898-2.578-2.463-5.315-2.463-5.315l-1.491.497s.273 1.273.705 2.796c.475 1.674 1.112 4.294 1.076 5.826-.035 1.532-.855 2.566-.855 2.566h-6.77s-.144-.146-.591-1.455z" fill="#000" opacity=".4"/>
            </g>
            <path d="m27.519 42.857.047-.517 12.357 1.424a1.22 1.22 0 0 1 1.06 1.425l-.056.313-12.788-1.858a.728.728 0 0 1-.62-.787z" fill="#24AEB1"/>
            <mask id="dt2y3c1qtm" style="mask-type:luminance" maskUnits="userSpaceOnUse" x="27" y="42" width="14" height="4">
                <path d="M27.516 42.34H41v3.162H27.516V42.34z" fill="#fff"/>
            </mask>
            <g mask="url(#dt2y3c1qtm)">
                <path d="m27.519 42.857.047-.517 12.357 1.424a1.22 1.22 0 0 1 1.06 1.425l-.056.313-12.788-1.858a.728.728 0 0 1-.62-.787z" fill="#000" opacity=".6"/>
            </g>
            <mask id="zbukbj51pn" style="mask-type:luminance" maskUnits="userSpaceOnUse" x="51" y="40" width="5" height="7">
                <path d="M51.547 40.97h4.123v5.345h-4.123V40.97z" fill="#fff"/>
            </mask>
            <g mask="url(#zbukbj51pn)">
                <path d="M51.547 46.315s2.72-2.992 3.28-5.344a5.29 5.29 0 0 1 .843.062s-1.608 4.372-4.123 5.282z" fill="#000" opacity=".3"/>
            </g>
            <path d="M54.785 39.916c.002 0 .007.025.015.075.007.05.022.124.03.22.018.19.03.47-.02.811-.05.34-.166.738-.36 1.15-.188.414-.448.84-.72 1.287-.544.897-1.15 1.63-1.591 2.153-.222.262-.405.47-.532.614l-.147.164a.481.481 0 0 1-.054.055.476.476 0 0 1 .047-.061l.14-.17.52-.623c.434-.529 1.035-1.264 1.577-2.156.271-.447.532-.872.721-1.281.194-.408.313-.8.366-1.137.054-.337.047-.615.035-.805-.006-.096-.018-.17-.022-.22a.474.474 0 0 1-.005-.076zM50.08 46.293c-.008.009-.203-.167-.435-.394-.231-.227-.412-.418-.403-.427.01-.01.205.167.436.393.232.227.412.418.403.428zM42.009 46.2c-.011-.006.063-.188.2-.388.135-.2.277-.337.285-.329.01.01-.113.158-.246.355-.134.197-.227.367-.24.361zM36.779 47.928c-.011-.01.195-.14.37-.472a1.63 1.63 0 0 0 .182-.62 1.517 1.517 0 0 0-.132-.774 1.518 1.518 0 0 0-.518-.59 1.63 1.63 0 0 0-.597-.25c-.368-.071-.6.007-.6-.008l.04-.012c.028-.005.067-.018.12-.023a1.42 1.42 0 0 1 .446.01c.187.032.405.108.615.246.21.138.409.344.537.606.124.265.158.55.133.799-.025.25-.103.467-.196.632a1.42 1.42 0 0 1-.272.354c-.037.038-.072.06-.093.078a.14.14 0 0 1-.035.024zM32.271 46.98c-.013.001-.033-.194-.044-.435-.012-.242-.01-.438.002-.438.014-.001.033.194.045.435.011.242.01.438-.003.438zM32.6 46.98c-.012.002-.047-.193-.078-.434-.031-.242-.046-.44-.033-.44.013-.003.049.192.08.434.03.242.045.439.032.44zM37.695 38.596c0 .013-1.502.023-3.355.023-1.854 0-3.356-.01-3.356-.023s1.502-.024 3.356-.024c1.853 0 3.355.01 3.355.024z" fill="#1A2E35"/>
            <path d="M32.828 38.59c-.013 0-.023-1.72-.023-3.843s.01-3.843.023-3.843.024 1.72.024 3.843c0 2.122-.01 3.843-.024 3.843zM31.908 38.584c-.013 0 .051-1.72.144-3.84.092-2.122.177-3.84.19-3.84.013.001-.05 1.72-.143 3.841-.093 2.12-.178 3.84-.191 3.839z" fill="#1A2E35"/>
            <path d="M29.828 49.07a.242.242 0 0 1-.04-.04c-.024-.028-.063-.066-.106-.122a3.492 3.492 0 0 1-.334-.492 3.823 3.823 0 0 1-.496-1.881 3.825 3.825 0 0 1 .511-1.879c.127-.217.248-.381.339-.489.043-.055.082-.093.107-.12a.267.267 0 0 1 .04-.04.244.244 0 0 1-.033.045c-.022.03-.059.07-.1.127a3.906 3.906 0 0 0-.817 2.356 3.904 3.904 0 0 0 .798 2.362c.04.057.076.097.098.127.023.03.034.045.033.046zM42.816 42.162l-.029.053-.545 1.028-.765.737 1.529 2.036 1.274-.212s-.143-.29-.782-.347l-.245-1.217.899-1.392" fill="#375A64"/>
            <path d="m41.477 43.98 1.529 2.036 1.274-.212-.175-.168-1.046.115-1.42-1.928-.162.157z" fill="#E1E1E1"/>
            <path d="M43.395 44.898c-.008.015-.088-.015-.186.004-.099.017-.164.072-.176.061-.013-.007.046-.096.166-.117.12-.022.205.04.196.052zM43.329 44.596c-.012.012-.08-.054-.186-.057-.105-.004-.178.057-.189.045-.005-.005.006-.029.039-.054a.24.24 0 0 1 .3.01c.032.027.041.052.036.056zM43.27 44.206c-.012.01-.068-.057-.162-.073-.094-.017-.169.026-.177.013-.005-.006.008-.026.041-.045a.222.222 0 0 1 .275.048c.024.03.03.053.023.057zM43.556 43.847c-.014.008-.062-.059-.15-.097-.086-.04-.168-.032-.171-.048-.007-.014.088-.052.195-.003.107.047.141.144.126.148zM43.681 43.558c-.005.005-.056-.039-.133-.115l-.133-.135c-.023-.027-.053-.048-.076-.093a.105.105 0 0 1-.005-.079.08.08 0 0 1 .07-.053c.057 0 .092.023.129.042a.43.43 0 0 1 .19.249c.03.11.005.18 0 .178-.01 0 0-.069-.038-.166a.447.447 0 0 0-.18-.213c-.03-.017-.07-.035-.096-.033-.013.001-.018.006-.022.015a.05.05 0 0 0 .002.037c.012.026.041.053.064.08.042.05.084.097.125.144.07.083.11.137.103.142z" fill="#1A2E35"/>
            <path d="M43.73 43.588c-.006 0-.012-.068.044-.156a.323.323 0 0 1 .366-.13.06.06 0 0 1 .028.042.07.07 0 0 1-.009.043c-.012.022-.027.035-.039.047a.568.568 0 0 1-.241.141c-.098.028-.16.018-.16.012-.001-.01.06-.015.147-.05a.627.627 0 0 0 .215-.142c.011-.012.023-.024.028-.034.004-.012.003-.009 0-.012a.105.105 0 0 0-.039-.007.318.318 0 0 0-.264.115c-.058.07-.067.133-.076.13z" fill="#1A2E35"/>
            <path d="M42.484 43.77a.153.153 0 1 1-.303.05.153.153 0 0 1 .303-.05z" fill="#E1E1E1"/>
            <path d="m47.46 43.142.41 2.655 3.306-.492c-.067-.313-1.871-.692-1.871-.692l-.192-1.712-1.652.24z" fill="#375A64"/>
            <path d="M48.258 44.621a.136.136 0 0 0-.07.168.131.131 0 0 0 .166.072c.061-.026.105-.12.073-.179-.031-.06-.127-.095-.18-.055M47.867 45.797l-.031-.27 3.181-.37s.157.042.156.148l-3.306.492z" fill="#E1E1E1"/>
            <path d="M49.353 44.587c.002.016-.077.036-.15.1-.073.061-.103.137-.119.133-.015 0-.006-.1.083-.176.087-.077.188-.072.186-.057zM49.72 44.679c.006.015-.06.053-.104.13-.047.074-.05.15-.066.152-.015.005-.04-.088.017-.182.057-.095.15-.116.153-.1zM49.984 45.064c-.014.006-.048-.072-.02-.166.028-.095.099-.141.107-.129.012.012-.03.067-.052.145-.024.078-.019.146-.035.15zM49.263 44.202c-.005.016-.082.005-.172.025-.09.018-.157.059-.168.046-.01-.01.05-.08.156-.102.107-.023.19.017.184.031zM49.134 43.822c.001.006-.061.026-.166.023a.75.75 0 0 1-.284-.063c-.016-.008-.036-.015-.055-.032-.02-.014-.037-.055-.02-.084a.09.09 0 0 1 .065-.048.593.593 0 0 1 .34.097c.086.06.121.116.116.12-.006.006-.051-.039-.138-.086a.672.672 0 0 0-.26-.076c-.036-.004-.066 0-.072.017-.003.006-.003.009.006.018a.875.875 0 0 0 .305.097c.099.013.162.008.163.017z" fill="#1A2E35"/>
            <path d="M49.109 43.847c-.006.004-.046-.05-.068-.153a.547.547 0 0 1 .023-.291c.015-.036.032-.083.093-.1.033-.006.064.016.077.036.014.021.019.04.026.058a.385.385 0 0 1-.029.293c-.052.096-.117.125-.119.12-.006-.008.045-.047.083-.137a.385.385 0 0 0 .011-.258c-.01-.035-.027-.061-.04-.056-.016.003-.04.033-.05.063a.558.558 0 0 0-.035.266c.01.098.036.156.028.16zM44.859 36.905l-2.836 6.178 1.873 1.124 3.92-7.434" fill="#1A2E35"/>
            <path d="m49.534 44.348-2.034.326-1.218-7.266-6.015.436c-.16.01-.32-.003-.475-.046-1.69-.462-1.46-2.617-1.298-2.962l8.325-.239a1.772 1.772 0 0 1 1.806 1.526l.91 8.225z" fill="#1A2E35"/>
            <path d="m38.416 35.178.03-3.072s-.396-1.998-.514-2.783c-.182-1.219-.431-1.797 1.565-2.664l.437-.168.675.009c.806.06 1.655.788 1.674 1.271l.777 6.922-4.644.485z" fill="#24AEB1"/>
            <path d="M38.536 27.374s-.563 1.213-.45 2.318l2.1 2.017c.47.524 1.06.747 1.813.793l4.346.475.121-1.138-4.135-1.171c-.164-.03-.246-.203-.373-.313l-3.422-2.98z" fill="#24AEB1"/>
            <path d="M38.195 27.723s.024-.026.084-.056a1.432 1.432 0 0 1 .75-.077c.045.01.093.021.138.047.044.025.085.056.128.088.084.065.168.14.254.222.174.162.339.368.532.576a31.532 31.532 0 0 0 1.377 1.402c.133.126.27.255.415.381.074.06.147.131.217.197a.52.52 0 0 0 .244.143h.002l4.136 1.17.019.006-.002.02-.027.254-.094.883-.003.023-.023-.003-1.84-.202-.87-.095-.834-.085c-.27-.03-.534-.06-.788-.098a3.536 3.536 0 0 1-.73-.17 2.695 2.695 0 0 1-.616-.33 7.3 7.3 0 0 1-.508-.392c-.621-.53-1.078-1.004-1.394-1.327a24.272 24.272 0 0 1-.449-.477.626.626 0 0 1-.03-.035s.012.01.033.032l.095.096c.084.087.206.212.364.372.32.319.78.789 1.401 1.314a7.4 7.4 0 0 0 .508.389c.182.126.383.242.608.323.225.084.47.13.723.166.255.036.518.067.788.096l.833.082.87.094 1.841.2-.026.022.094-.883.027-.255.017.026-4.135-1.175h.003a.557.557 0 0 1-.265-.153c-.073-.07-.14-.135-.215-.197a13.138 13.138 0 0 1-.416-.384 30.835 30.835 0 0 1-1.372-1.41c-.193-.21-.355-.416-.527-.578a3.176 3.176 0 0 0-.25-.223 1.203 1.203 0 0 0-.125-.087c-.041-.024-.088-.036-.132-.046a1.445 1.445 0 0 0-.744.064c-.06.028-.084.052-.086.05z" fill="#1A2E35"/>
            <path d="m39.286 23.827.211 2.99a.932.932 0 0 0 1.86-.127c-.018-.284-.035-.518-.035-.518s.724-.112.733-.836c.005-.418-.067-1.366-.129-2.093a.95.95 0 0 0-.946-.869h-.437a1.34 1.34 0 0 0-1.257 1.453z" fill="#FFBF9D"/>
            <path d="M41.319 26.162s-.458.038-.944-.268c0 0 .223.521.945.456l-.001-.188z" fill="#FF9A6C"/>
            <path d="M41.753 24.173a.103.103 0 0 1-.1.104.099.099 0 0 1-.106-.093.103.103 0 0 1 .1-.104.099.099 0 0 1 .106.093zM41.8 23.969c-.014.013-.092-.045-.203-.045-.111 0-.193.056-.205.043-.006-.006.007-.03.042-.056a.283.283 0 0 1 .326.001c.034.026.045.05.04.057zM40.714 24.173a.103.103 0 0 1-.1.104.099.099 0 0 1-.106-.093.103.103 0 0 1 .1-.104.1.1 0 0 1 .106.093zM40.706 23.99c-.013.014-.092-.044-.203-.044-.111-.001-.193.056-.205.042-.006-.006.007-.03.043-.056a.284.284 0 0 1 .325.002c.034.026.046.05.04.056zM41.107 24.814a.74.74 0 0 1 .18-.033c.029-.003.056-.008.06-.028.007-.02-.005-.05-.018-.084l-.084-.216c-.117-.308-.201-.561-.19-.566.013-.004.118.241.235.55l.08.217c.01.032.03.069.015.111a.07.07 0 0 1-.047.042c-.018.006-.034.006-.048.007a.722.722 0 0 1-.183 0zM40.776 24.891c.018 0 .018.12.121.206.104.085.232.072.233.089.002.007-.028.023-.083.025a.3.3 0 0 1-.194-.068.26.26 0 0 1-.094-.172c-.005-.05.009-.08.017-.08zM40.726 23.554c-.01.03-.122.016-.252.031-.131.014-.236.052-.253.025-.008-.013.01-.042.053-.071a.422.422 0 0 1 .187-.066.423.423 0 0 1 .198.023c.048.02.072.044.067.058zM41.754 23.647c-.02.026-.096 0-.189-.002-.092-.004-.17.017-.188-.01-.008-.012.005-.038.039-.061a.26.26 0 0 1 .153-.042.26.26 0 0 1 .15.051c.033.026.043.052.035.064z" fill="#1A2E35"/>
            <path d="M39.529 24.37c-.013-.005-.498-.146-.482.348.016.495.51.377.51.363l-.028-.71z" fill="#FFBF9D"/>
            <path d="M39.399 24.898c-.002-.001-.009.007-.023.014a.086.086 0 0 1-.064.003c-.053-.017-.1-.099-.105-.188a.284.284 0 0 1 .02-.124c.014-.037.037-.063.063-.068a.044.044 0 0 1 .051.022c.007.013.005.023.007.024.002.001.01-.008.006-.029a.054.054 0 0 0-.02-.03.065.065 0 0 0-.049-.011c-.038.004-.07.04-.087.08a.293.293 0 0 0-.026.138c.007.1.06.191.133.21a.093.093 0 0 0 .078-.016c.015-.012.018-.024.016-.024z" fill="#FF9A6C"/>
            <path d="M39.251 24.353c.076-.018.206.051.239.122.032.07.039.15.07.222.033.07.105.134.181.116.052-.012.09-.06.103-.112a.418.418 0 0 0 .002-.16c-.03-.231-.078-.46-.087-.693-.01-.233.023-.475.146-.673.122-.198.346-.344.578-.325.154.012.295.092.448.114a.604.604 0 0 0 .502-.168c.017-.017.094-.067.094-.067 0-.012-.011-.116-.052-.153-.303-.28-.85-.359-1.25-.258-.4.1-.775.383-.947.758-.173.376-.122.897-.027 1.277z" fill="#1A2E35"/>
            <path d="M41.929 23.13s-1.899-.61-2.72 1.032c0 0-.123-.411-.123-.631 0-.147.088-1.024.99-1.3 0 0 1.359-.519 1.853.9z" fill="#24AEB1"/>
            <path d="M40.302 23.172a.42.42 0 0 0 .314.194.42.42 0 0 0 .344-.134.25.25 0 0 0 .239.152.25.25 0 0 0 .221-.176.556.556 0 0 0 .185.135c.072.026.164.016.21-.044.05-.062.035-.156-.012-.218a.45.45 0 0 0-.193-.13 1.39 1.39 0 0 0-.716-.108.966.966 0 0 0-.628.342" fill="#1A2E35"/>
            <mask id="jq6d3oet9o" style="mask-type:luminance" maskUnits="userSpaceOnUse" x="39" y="22" width="3" height="3">
                <path d="M39.086 22.139h2.843v2.023h-2.843V22.14z" fill="#fff"/>
            </mask>
            <g mask="url(#jq6d3oet9o)">
                <path d="M41.929 23.13s-.216-.257-.604-.274c-.56-.025-1.608.29-2.116 1.306 0 0-.123-.411-.123-.631 0-.147.088-1.024.99-1.3 0 0 1.359-.519 1.853.9z" fill="#000" opacity=".4"/>
            </g>
            <path d="M39.29 23.97c.28-.43.669-.786 1.105-1.059.437-.273 1.159-.542 1.656-.674.15-.04.305-.075.457-.048.152.026.301.127.34.277.047.188-.286.477-.443.59-.156.115-.475.282-.475.282s.004-.348-.552-.42c-.758-.098-2.089 1.053-2.089 1.053z" fill="#24AEB1"/>
            <mask id="my4jjd9p0p" style="mask-type:luminance" maskUnits="userSpaceOnUse" x="38" y="30" width="5" height="3">
                <path d="M38.625 30.141h3.828v2.687h-3.828v-2.687z" fill="#fff"/>
            </mask>
            <g mask="url(#my4jjd9p0p)">
                <path d="M38.625 30.141c.196.473.393 1.055.677 1.48.284.427.663.804 1.135 1 .592.249 1.293.289 1.882.035.048-.021.143-.048.134-.1 0 0-.195-.021-.256-.031-1.19-.201-1.32-.348-1.89-.799-.355-.28-1.143-1.13-1.682-1.585z" fill="#000" opacity=".3"/>
            </g>
            <path d="M42.406 33.581a.48.48 0 0 1-.05.11 1.39 1.39 0 0 1-.192.27c-.184.21-.513.437-.922.564-.41.125-.798.149-1.074.16a7.849 7.849 0 0 1-.329.006.579.579 0 0 1-.12-.005c0-.004.042-.008.12-.013.087-.006.196-.013.327-.02a4.7 4.7 0 0 0 1.062-.173c.401-.124.725-.342.912-.543.19-.199.257-.361.266-.356z" fill="#1A2E35"/>
            <path d="m47.534 44.89-.007-.028-.016-.083-.059-.321-.206-1.184-.662-3.91-.325-1.953.023.019-2.603.19-.747.05a194.967 194.967 0 0 1-.268.014l.017-.003.051-.006.199-.018.746-.064 2.602-.207.02-.002.003.02.329 1.953.648 3.911.192 1.187c.02.137.037.245.05.323a13.482 13.482 0 0 0 .013.113z" fill="#375A64"/>
            <path d="M46.89 36.76c.008.011-.15.147-.33.33-.18.183-.314.344-.325.335-.01-.007.108-.182.291-.368.182-.185.356-.306.363-.297z" fill="#375A64"/>
            <path d="M41.332 26.754c.002 0 .005.01.011.03.007.02.012.05.017.089a.74.74 0 0 1-.044.33.848.848 0 0 1-.298.392.903.903 0 0 1-.582.155 1.046 1.046 0 0 1-.565-.212 1.219 1.219 0 0 1-.321-.374 1.302 1.302 0 0 1-.14-.397c-.004-.02-.005-.031-.003-.032.01-.003.033.173.172.412.07.117.173.249.318.357.144.108.334.185.542.199a.874.874 0 0 0 .553-.144.834.834 0 0 0 .293-.369c.05-.127.06-.24.057-.316-.003-.077-.015-.119-.01-.12zM42.612 30.713a.378.378 0 0 1-.019-.095l-.037-.26-.111-.856a28.595 28.595 0 0 1-.114-1.121.39.39 0 0 1 0-.097c.002 0 .01.034.019.095l.035.26.107.857c.041.335.077.639.098.86.01.11.017.198.021.26a.382.382 0 0 1 .001.097z" fill="#1A2E35"/>
        </g>
    </g>
    <defs>
        <clipPath id="1geowl82za">
            <path fill="#fff" d="M0 0h62v62H0z"/>
        </clipPath>
    </defs>
</svg>
