<svg width="20" height="20" viewBox="0 0 20 20" fill="none" xmlns="http://www.w3.org/2000/svg">
    <path d="m17.84 9.65-7.5-7.5c-.3-.3-.718-.484-1.176-.484H3.331c-.917 0-1.667.75-1.667 1.667v5.833c0 .458.183.875.492 1.183l7.5 7.5c.3.3.716.484 1.175.484a1.63 1.63 0 0 0 1.175-.492l5.833-5.833c.308-.3.492-.717.492-1.175 0-.459-.192-.884-.492-1.184zm-7.01 7.024-7.5-7.508V3.333h5.834v-.009l7.5 7.5-5.833 5.85z" fill="#EF4281"/>
    <path d="M5.414 6.666a1.25 1.25 0 1 0 0-2.5 1.25 1.25 0 0 0 0 2.5z" fill="#EF4281"/>
</svg>
